<svg width="281" height="36" viewBox="0 0 281 36" version="1.1" xmlns="http://www.w3.org/2000/svg" xmlns:xlink="http://www.w3.org/1999/xlink"><title>Group</title><desc>Created with Sketch.</desc><g id="Page-1" stroke="none" stroke-width="1" fill="none" fill-rule="evenodd"><g id="Donate" transform="translate(-576.000000, -667.000000)" fill="#FFF"><g id="donae" transform="translate(492.000000, 641.000000)"><g id="Group" transform="translate(83.000000, 26.000000)"><text id="Donate-with" font-family="Montserrat-ExtraBoldItalic, Montserrat" font-size="20.8" font-style="italic" font-weight="600"><tspan x="1.062" y="22.8">Donate with</tspan></text><path d="M175.519123,6.40238127 C175.102853,5.52967324 174.421976,4.82428893 173.589435,4.28622834 C172.705264,3.73504432 171.685562,3.35118402 170.501289,3.13464744 C169.304108,2.91483 167.929447,2.81312343 166.315996,2.8 L158.916707,2.8 C158.148704,2.81312343 157.390382,3.41680116 157.216129,4.17139833 L152.237017,26.2286017 C152.059538,26.9700754 152.537119,27.6 153.308349,27.6 L156.848262,27.6 C157.619492,27.6 158.387495,26.9963223 158.552067,26.2286017 L159.775063,20.8709618 C159.936408,20.1262072 160.69473,19.5126869 161.462733,19.5126869 L162.485662,19.5126869 C166.819393,19.4995634 170.172145,18.6006085 172.579415,16.7961371 C175.0125,14.9883847 176.2,12.6032015 176.2,9.65699167 C176.2,8.36105305 175.996705,7.27180844 175.519123,6.40238127 Z M167.411351,12.8333775 C166.348129,13.6153642 164.871786,14 162.959907,14 L162.108048,14 C161.345858,14 160.868689,13.4055629 161.032015,12.6712583 L162.095238,8.12874172 C162.245754,7.40715232 163.007944,6.8 163.773336,6.8 L164.923026,6.8 C166.274472,6.8 167.299265,7.02251656 167.987797,7.4802649 C168.66352,7.91576159 168.99978,8.62463576 168.99978,9.55602649 C169.01259,10.970596 168.464966,12.064106 167.411351,12.8333775 Z M216.358964,10.4132497 L202.129222,34.2537006 C201.670618,34.9977081 200.655834,35.5871168 199.894746,35.5871168 L196.183629,35.6 C195.422541,35.6 195.165593,34.9977081 195.637207,34.2537006 L198.801902,28.7944241 C198.801902,28.7944241 199.055598,28.4787845 198.824669,26.6944547 C198.343297,23.4736426 195.916923,9.78519137 195.916923,9.78519137 C195.738035,9.04118379 196.209649,8.42600869 196.983747,8.42600869 L200.184219,8.42600869 C201.163226,8.42600869 201.950334,9.06695029 202.129222,9.81095787 L203.716448,19.3091326 L204.31491,19.3220159 C204.809292,18.4395134 209.928747,9.74654163 209.928747,9.74654163 C210.413371,9.01541729 211.405388,8.40024219 212.179485,8.40024219 C212.179485,8.40024219 215.610886,8.41312544 216.459792,8.40024219 C217.731524,8.37447569 216.358964,10.4132497 216.358964,10.4132497 Z M240.3191,6.4107908 C239.877,5.52859032 239.221916,4.82348585 238.376439,4.2725205 C237.508373,3.73467337 236.48541,3.3476858 235.288189,3.13123512 C234.116783,2.91478445 232.71626,2.8 231.115662,2.8 L223.703215,2.8 C222.935186,2.80983867 222.192973,3.42639513 222.015488,4.16757472 L217.036208,26.2291457 C216.858722,26.9736049 217.352455,27.6 218.107576,27.6 L221.650835,27.5868818 C222.405956,27.6 223.186893,26.9736049 223.351471,26.2291457 L224.5616,20.8736313 C224.739086,20.1324517 225.494207,19.502777 226.262236,19.502777 L227.27229,19.502777 C231.609395,19.502777 234.975168,18.5943401 237.408336,16.8004232 C239.78987,14.9802698 241,12.5993124 241,9.6509918 C240.987092,8.35884687 240.770882,7.27003438 240.3191,6.4107908 Z M232.214743,12.8541114 C231.153643,13.6148541 229.680249,14 227.781776,14 L226.909246,14 C226.158166,14 225.659577,13.3888594 225.835362,12.669496 L226.896461,8.13050398 C227.056265,7.40795756 227.820129,6.8 228.580797,6.8 L229.715406,6.8 C231.064153,6.8 232.077311,7.02281167 232.774057,7.47161804 C233.448431,7.9204244 233.787216,8.6270557 233.8,9.5596817 C233.8,10.9761273 233.263058,12.0710875 232.214743,12.8541114 Z M192.621995,9.55480338 C191.31188,8.77497926 189.235948,8.4 186.416353,8.4 C185.008137,8.4 183.61258,8.50287042 182.2012,8.73847685 C181.163234,8.90439688 181.065134,8.93094408 180.422734,9.08690891 C179.099961,9.38556496 178.891102,10.7726564 178.891102,10.7726564 L178.470219,12.6010951 C178.236044,13.7658537 178.878444,13.7260329 179.137935,13.6231624 C179.717044,13.4439688 180.039826,13.2614568 181.213866,12.9893479 C182.349932,12.7172391 183.536631,12.5214535 184.476496,12.5347271 C185.86256,12.5347271 186.925842,12.6774183 187.641026,13.0026215 C188.334058,13.3112328 188.678991,13.8587689 188.678991,14.6485482 L188.618865,15.1662187 L188.125199,15.4914219 C186.147368,15.6208396 184.72333,15.8133068 182.992332,16.0754604 C181.299309,16.3210221 179.818309,16.7623693 178.593636,17.3430894 C177.270863,17.9536751 176.280365,18.7832753 175.603156,19.8186162 C174.93544,20.8705492 174.6,22.1414966 174.6,23.6314584 C174.6,25.0450971 175.081008,26.196582 176.020874,27.0925502 C176.960739,27.9719263 178.19807,28.4 179.682234,28.4 C180.618935,28.4 181.349941,28.3236768 181.856266,28.1942592 L183.549289,27.5836735 L184.970163,26.7540733 L186.283443,25.84815 L186.292936,25.8746972 L186.169519,26.4554173 L186.156861,26.4819645 C186.023951,27.1954206 186.429011,27.7794591 187.084068,27.8425087 L187.096727,27.8690559 L190.337205,27.8690559 L190.372014,27.8425087 C191.065046,27.7529119 191.720104,27.1688734 191.868837,26.4819645 L194.403625,14.9704331 L194.5397,14.0379625 L194.599826,13.1585864 C194.612484,11.5358885 193.935275,10.3313091 192.621995,9.55480338 Z M186.682894,21.6352078 L186.12979,22.4122249 L184.734167,23.1721271 C184.081376,23.4528117 183.467173,23.6 182.888343,23.6 C182.023314,23.6 181.344797,23.4665037 180.878517,23.1858191 L180.2,21.7823961 C180.2,21.0190709 180.364002,20.4200489 180.714515,19.9511002 L182.209826,18.8694377 C182.849754,18.6400978 183.644038,18.4415648 184.547655,18.3046455 C185.351586,18.198533 186.946583,18 187.158821,18 L187.4,18.4518337 C187.348548,18.7085575 186.895132,20.7246944 186.682894,21.6352078 Z M274.776,1.44946237 L275.9504,1.44946237 L275.9504,1.97247312 L274.776,1.97247312 L274.776,4.11268817 L274.8624,4.40516129 L275.0512,4.60817204 L275.4,4.66322581 L275.7008,4.62193548 L275.9248,4.5427957 L275.9504,4.5427957 L275.9504,5.10709677 L275.6016,5.17247312 L275.2624,5.2 L274.4624,4.89032258 L274.1872,3.92344086 L274.1872,1.97247312 L273.8,1.97247312 L273.8,1.44946237 L274.1872,1.44946237 L274.1872,0.4 L274.776,0.4 L274.776,1.44946237 Z M256.611067,9.55480338 C255.289328,8.78825286 253.224506,8.4 250.410277,8.4 C249.012648,8.4 247.605534,8.50287042 246.211067,8.74843206 C245.161265,8.90439688 245.060079,8.94421769 244.418182,9.08690891 C243.096443,9.38556496 242.900395,10.7726564 242.900395,10.7726564 L242.467194,12.6010951 C242.233202,13.7658537 242.862451,13.7127593 243.159684,13.6231624 C243.725692,13.4406504 244.048221,13.2747304 245.208696,12.9893479 C246.334387,12.7172391 247.532806,12.5214535 248.481423,12.5214535 C249.853755,12.5214535 250.916206,12.6906919 251.63083,13.0026215 C252.335968,13.3112328 252.680632,13.8687241 252.680632,14.6485482 L252.620553,15.1662187 L252.127273,15.4914219 C250.13834,15.6208396 248.705929,15.8133068 247.001581,16.072142 C245.319368,16.3210221 243.826877,16.7490957 242.590514,17.3430894 C241.268775,17.9536751 240.282213,18.7832753 239.602372,19.8186162 C238.935178,20.8705492 238.6,22.1414966 238.6,23.6181848 C238.6,25.0318235 239.083794,26.196582 240.022925,27.0925502 C240.971542,27.9586527 242.195257,28.4 243.678261,28.4 C244.617391,28.4 245.344664,28.3369504 245.863241,28.1942592 L247.542292,27.5969471 L248.977866,26.7673469 L250.274308,25.84815 L250.299605,25.8746972 L250.176285,26.4554173 L250.163636,26.4686909 L250.176285,26.4819645 C250.01502,27.1954206 250.422925,27.7794591 251.099605,27.8425087 L251.099605,27.8557823 L254.324901,27.8557823 L254.375494,27.8425087 C255.052174,27.7529119 255.709881,27.1688734 255.855336,26.4686909 L258.388142,14.9837067 L258.524111,14.0379625 L258.6,13.1585864 C258.6,11.5358885 257.932806,10.3313091 256.611067,9.55480338 Z M251.495442,21.6352078 L250.916354,22.4224939 L249.549062,23.1858191 C248.892761,23.4528117 248.265416,23.6 247.699196,23.6 C246.808043,23.6 246.142091,23.4665037 245.688472,23.199511 L245,21.796088 C245,21.0190709 245.173727,20.4200489 245.514745,19.9511002 C245.852547,19.5095355 246.367292,19.1364303 247.020375,18.8660147 C247.650938,18.6400978 248.442359,18.4518337 249.346381,18.3183374 C250.15067,18.198533 251.746381,18.0102689 251.949062,18 L252.2,18.4655257 C252.161394,18.7188264 251.707775,20.7246944 251.495442,21.6352078 Z M269.771878,4.16988639 L265.181123,26.2170873 L265.009243,26.4883764 C264.740485,27.0971227 264.168594,27.6 263.534201,27.6 L260.34661,27.6 L260.287234,27.5239067 C259.674716,27.4312714 259.28408,26.9151605 259.430959,26.2303209 L259.418459,26.2170873 L259.552838,25.5851823 L263.862335,4.90766037 L264.009214,4.18312 L264.181094,3.8985973 C264.462352,3.29315946 265.034243,2.80020734 265.656136,2.80020734 L268.734348,2.80020734 C269.47812,2.78697373 269.918757,3.40895358 269.771878,4.16988639 Z M281.548015,1.51680291 L281.8,2.38001817 L281.8,4.4 L281.249936,4.4 L281.249936,2.62997275 L281.21306,2.24341508 L281.151601,1.94986376 L280.948784,1.76675749 L280.589245,1.69990917 L280.119078,1.81326067 L279.664277,2.09518619 L279.664277,2.24341508 L279.676569,2.41489555 L279.676569,4.4 L279.123431,4.4 L279.123431,2.61834696 L279.098848,2.24341508 L279.015877,1.93823797 L278.834571,1.76675749 L278.46274,1.69990917 L278.007939,1.80163488 L277.550064,2.07484105 L277.550064,4.38837421 L277,4.38837421 L277,1.29009991 L277.550064,1.29009991 L277.550064,1.63015441 L278.066325,1.3133515 L278.619462,1.2 L279.184891,1.33660309 L279.532138,1.69990917 L280.143662,1.3133515 L280.733675,1.2 L281.548015,1.51680291 Z" id="paypal-logo"/></g></g></g></g></svg>