<svg width="35" height="35" viewBox="0 0 35 35" version="1.1" xmlns="http://www.w3.org/2000/svg" xmlns:xlink="http://www.w3.org/1999/xlink"><title>facebook logo</title><desc>Created with Sketch.</desc><g id="Symbols" stroke="none" stroke-width="1" fill="none" fill-rule="evenodd"><g id="Header" transform="translate(-1430.000000, -41.000000)"><g id="facebook-logo" transform="translate(1430.000000, 41.000000)"><circle id="Oval" fill="#D8D8D8" cx="17.5" cy="17.5" r="17.5"/><path d="M22.5115697,6.00468153 L19.3930582,6 C15.8899312,6 13.6253909,8.31860386 13.6253909,11.9065255 L13.6253909,14.6302375 L10.4896811,14.6302375 C10.2198249,14.6302375 10,14.8483966 10,15.1189888 L10,19.0655154 C10,19.3348592 10.2198249,19.5542667 10.4896811,19.5542667 L13.6253909,19.5542667 L13.6253909,29.5112487 C13.6253909,29.7805925 13.8452158,30 14.1163227,30 L18.2057536,30 C18.4768605,30 18.6966854,29.7805925 18.6966854,29.5112487 L18.6966854,19.5542667 L22.362414,19.5542667 C22.633521,19.5542667 22.8524078,19.3348592 22.8524078,19.0655154 L22.8545966,15.1189888 C22.8545966,14.9897787 22.8020638,14.8655622 22.710444,14.772868 C22.6188243,14.6814221 22.4943715,14.6302375 22.3636648,14.6302375 L18.6966854,14.6302375 L18.6966854,12.3213087 C18.6966854,11.211787 18.9618512,10.6484434 20.4093183,10.6484434 L22.5103189,10.647195 C22.7814259,10.647195 23,10.4277875 23,10.1584437 L23,6.49499337 C23,6.22408905 22.7814259,6.00592993 22.5115697,6.00468153 Z" id="Path" fill="#FFF"/></g></g></g></svg>