<?xml version="1.0" encoding="UTF-8"?>
<svg width="371px" height="40px" viewBox="0 0 371 40" version="1.1" xmlns="http://www.w3.org/2000/svg" xmlns:xlink="http://www.w3.org/1999/xlink">
    <!-- Generator: Sketch 47.1 (45422) - http://www.bohemiancoding.com/sketch -->
    <title>pay-logos</title>
    <desc>Created with Sketch.</desc>
    <defs>
        <polygon id="path-1" points="0.0169306931 0.170731707 0.0169306931 33.1333333 44.0649505 33.1333333 44.0649505 0.170731707 0.0169306931 0.170731707"></polygon>
        <polygon id="path-3" points="0.00995049505 39.8357202 0.00995049505 0.0131687243 66.8671609 0.0131687243 66.8671609 39.8357202"></polygon>
        <polygon id="path-5" points="0.00995049505 0.0131687243 0.00995049505 39.7341834 40.0144233 39.7341834 40.0144233 0.0131687243 0.00995049505 0.0131687243"></polygon>
        <polygon id="path-7" points="0.0148514851 0.208510638 0.0148514851 15.935922 92.8314356 15.935922 92.8314356 0.208510638 0.0148514851 0.208510638"></polygon>
        <polygon id="path-9" points="0.0148514851 0.208510638 0.0148514851 34.8411348 48.9509901 34.8411348 48.9509901 0.208510638"></polygon>
    </defs>
    <g id="Page-1" stroke="none" stroke-width="1" fill="none" fill-rule="evenodd">
        <g id="Donate" transform="translate(-521.000000, -737.000000)">
            <g id="pay-logos" transform="translate(521.000000, 737.000000)">
                <g id="visa" transform="translate(149.000000, 3.000000)">
                    <polygon id="Fill-1" fill="#3C58BF" points="41.7172277 34.0891463 47.4962376 1.30894309 56.5259406 1.30894309 50.9275248 34.0891463"></polygon>
                    <polygon id="Fill-2" fill="#293688" points="41.7172277 34.0891463 49.1210198 1.30894309 56.5259406 1.30894309 50.9275248 34.0891463"></polygon>
                    <path d="M83.6150495,1.67345528 C81.8096733,0.944430894 78.919604,0.216260163 75.3074406,0.216260163 C66.2777376,0.216260163 59.7766337,4.76910569 59.7766337,11.3249187 C59.7766337,16.2422764 64.2914851,18.7921545 67.9036485,20.4306098 C71.5155297,22.0702033 72.5990941,23.1628862 72.5990941,24.6200813 C72.5990941,26.8051626 69.7090248,27.8978455 67.1804257,27.8978455 C63.5693911,27.8978455 61.5820099,27.350935 58.5121931,26.0761382 L57.2480347,25.5303659 L55.9835941,32.9964634 C58.1507228,33.906748 62.1243564,34.8184553 66.2777376,34.8184553 C75.8497871,34.8184553 82.1700149,30.2656098 82.1700149,23.345 C82.1700149,19.5203252 79.8222921,16.6070732 74.4047525,14.2393089 C71.1540594,12.6 69.1678069,11.6894309 69.1678069,10.050122 C69.1678069,8.59378049 70.7925891,7.13658537 74.4047525,7.13658537 C77.4745693,7.13658537 79.6414158,7.68235772 81.2673267,8.41166667 L82.1700149,8.77504065 L83.6150495,1.67345528 Z" id="Fill-3" fill="#3C58BF"></path>
                    <path d="M83.6150495,1.67345528 C81.8096733,0.944430894 78.919604,0.216260163 75.3074406,0.216260163 C66.2777376,0.216260163 61.4025446,4.76910569 61.4025446,11.3249187 C61.4025446,16.2422764 64.2914851,18.7921545 67.9036485,20.4306098 C71.5155297,22.0702033 72.5990941,23.1628862 72.5990941,24.6200813 C72.5990941,26.8051626 69.7090248,27.8978455 67.1804257,27.8978455 C63.5693911,27.8978455 61.5820099,27.350935 58.5121931,26.0761382 L57.2480347,25.5303659 L55.9835941,32.9964634 C58.1507228,33.906748 62.1243564,34.8184553 66.2777376,34.8184553 C75.8497871,34.8184553 82.1700149,30.2656098 82.1700149,23.345 C82.1700149,19.5203252 79.8222921,16.6070732 74.4047525,14.2393089 C71.1540594,12.6 69.1678069,11.6894309 69.1678069,10.050122 C69.1678069,8.59378049 70.7925891,7.13658537 74.4047525,7.13658537 C77.4745693,7.13658537 79.6414158,7.68235772 81.2673267,8.41166667 L82.1700149,8.77504065 L83.6150495,1.67345528 Z" id="Fill-4" fill="#293688"></path>
                    <path d="M99.1458564,1.30894309 C96.9790099,1.30894309 95.3542277,1.49105691 94.4504109,3.67642276 L80.9058564,34.0891463 L90.6585,34.0891463 L92.4641584,28.6260163 L104.02246,28.6260163 L105.105743,34.0891463 L113.773975,34.0891463 L106.189307,1.30894309 L99.1458564,1.30894309 Z M94.9927574,23.1628862 C95.5339752,21.5232927 98.6046386,13.5102846 98.6046386,13.5102846 C98.6046386,13.5102846 99.3267327,11.5073171 99.8690792,10.2322358 L100.410297,13.3278862 C100.410297,13.3278862 102.215673,21.5232927 102.577426,23.345 L94.9927574,23.345 L94.9927574,23.1628862 Z" id="Fill-5" fill="#3C58BF"></path>
                    <path d="M101.312985,1.30894309 C99.1458564,1.30894309 97.5213564,1.49105691 96.6172574,3.67642276 L80.9058564,34.0891463 L90.6585,34.0891463 L92.4641584,28.6260163 L104.02246,28.6260163 L105.105743,34.0891463 L113.773975,34.0891463 L106.189307,1.30894309 L101.312985,1.30894309 Z M94.9927574,23.1628862 C95.7145693,21.3408943 98.6046386,13.5102846 98.6046386,13.5102846 C98.6046386,13.5102846 99.3267327,11.5073171 99.8690792,10.2322358 L100.410297,13.3278862 C100.410297,13.3278862 102.215673,21.5232927 102.577426,23.345 L94.9927574,23.345 L94.9927574,23.1628862 Z" id="Fill-6" fill="#293688"></path>
                    <path d="M25.1028564,24.2552846 L24.2001683,19.5203252 C22.5742574,14.0571951 17.3373119,8.04715447 11.558302,5.13361789 L19.6853168,34.2715447 L29.4368317,34.2715447 L44.0649505,1.49105691 L34.3134356,1.49105691 L25.1028564,24.2552846 Z" id="Fill-7" fill="#3C58BF"></path>
                    <g id="Group-13" transform="translate(0.000000, 1.138211)">
                        <mask id="mask-2" fill="white">
                            <use xlink:href="#path-1"></use>
                        </mask>
                        <g id="Clip-9"></g>
                        <path d="M25.1028564,23.1170732 L24.2001683,18.3821138 C22.5742574,12.9189837 17.3373119,6.90894309 11.558302,3.9954065 L19.6853168,33.1333333 L29.4368317,33.1333333 L44.0649505,0.352845528 L36.1188119,0.352845528 L25.1028564,23.1170732 Z" id="Fill-8" fill="#293688" mask="url(#mask-2)"></path>
                        <path d="M0,0.170731707 L1.62591089,0.535243902 C13.1830842,3.26638211 21.1292228,10.1867073 24.2001683,18.3821138 L20.9483465,2.90272358 C20.4071287,0.717642276 18.7815,0.170731707 16.7952475,0.170731707 L0,0.170731707 Z" id="Fill-10" fill="#FFBC00" mask="url(#mask-2)"></path>
                        <path d="M0,0.170731707 C11.558302,2.90272358 21.1292228,10.0043089 24.2001683,18.1997154 L21.1292228,5.2704878 C20.588005,3.08398374 18.7815,1.8103252 16.7952475,1.8103252 L0,0.170731707 Z" id="Fill-11" fill="#F7981D" mask="url(#mask-2)"></path>
                        <path d="M0,0.170731707 C11.558302,2.90272358 21.1292228,10.0043089 24.2001683,18.1997154 L22.0319109,11.0969919 C21.4906931,8.91191057 20.7688812,6.72654472 18.2402822,5.81626016 L0,0.170731707 Z" id="Fill-12" fill="#ED7C00" mask="url(#mask-2)"></path>
                    </g>
                    <path d="M34.1325594,23.1628862 L27.991797,16.9704472 L25.1028564,23.8907724 L24.3796337,19.3379268 C22.7551337,13.8747967 17.5170594,7.8647561 11.7391782,4.95150407 L19.8647822,34.0891463 L29.6177079,34.0891463 L34.1325594,23.1628862 Z" id="Fill-14" fill="#051244"></path>
                    <polygon id="Fill-15" fill="#051244" points="50.9275248 34.0891463 43.1622624 26.0761382 41.7172277 34.0891463"></polygon>
                    <path d="M71.6952772,22.7980894 C72.4185,23.5273984 72.7799703,24.0731707 72.5990941,24.8010569 C72.5990941,26.9864228 69.7090248,28.0802439 67.1804257,28.0802439 C63.5693911,28.0802439 61.5820099,27.5333333 58.5121931,26.2585366 L57.2480347,25.7127642 L55.9835941,33.1788618 C58.1507228,34.0891463 62.1243564,34.9994309 66.2777376,34.9994309 C72.0567475,34.9994309 76.7524752,33.3609756 79.4619505,30.4465854 L71.6952772,22.7980894 Z" id="Fill-16" fill="#051244"></path>
                    <path d="M82.1700149,34.0891463 L90.6585,34.0891463 L92.4641584,28.6260163 L104.02246,28.6260163 L105.105743,34.0891463 L113.773975,34.0891463 L110.704158,20.795122 L99.8690792,10.2322358 L100.410297,13.146626 C100.410297,13.146626 102.215673,21.3408943 102.577426,23.1628862 L94.9927574,23.1628862 C95.7145693,21.3408943 98.6046386,13.5102846 98.6046386,13.5102846 C98.6046386,13.5102846 99.3267327,11.5073171 99.8690792,10.2322358" id="Fill-17" fill="#051244"></path>
                </g>
                <g id="mastercard">
                    <path d="M66.8671609,19.9244444 C66.8671609,30.8806584 57.951849,39.8357202 46.806797,39.8357202 C35.7687129,39.8357202 26.7470965,30.8806584 26.7470965,19.9244444 C26.7470965,8.96757202 35.6624084,0.0131687243 46.7013218,0.0131687243 C57.951849,0.0131687243 66.8671609,8.96757202 66.8671609,19.9244444 Z" id="Fill-1" fill="#FFB600"></path>
                    <path d="M46.806797,0.0131687243 C57.8457104,0.0131687243 66.8671609,8.96757202 66.8671609,19.9244444 C66.8671609,30.8806584 57.951849,39.8357202 46.806797,39.8357202 C35.7687129,39.8357202 26.7470965,30.8806584 26.7470965,19.9244444" id="Fill-2" fill="#F7981D"></path>
                    <g id="Group-7">
                        <mask id="mask-4" fill="white">
                            <use xlink:href="#path-3"></use>
                        </mask>
                        <g id="Clip-4"></g>
                        <path d="M46.806797,0.0131687243 C57.8457104,0.0131687243 66.8671609,8.96757202 66.8671609,19.9244444 C66.8671609,30.8806584 57.951849,39.8357202 46.806797,39.8357202" id="Fill-3" fill="#FF8500" mask="url(#mask-4)"></path>
                        <path d="M19.8479208,0.0131687243 C8.91597525,0.118683128 0,8.96757202 0,19.9244444 C0,30.8806584 8.91597525,39.8357202 20.0603639,39.8357202 C25.2609901,39.8357202 29.9310891,37.8340741 33.5394703,34.6730864 C34.2826064,34.0409877 34.9194381,33.3033745 35.556104,32.5665844 L31.4171955,32.5665844 C30.886005,31.9344856 30.3554777,31.1968724 29.9310891,30.5649383 L37.0422104,30.5649383 C37.4672624,29.9328395 37.8914851,29.1952263 38.2095693,28.4577778 L28.7637302,28.4577778 C28.4451485,27.825679 28.1270644,27.0880658 27.9144554,26.3506173 L38.9527054,26.3506173 C39.5895371,24.3489712 40.0144233,22.2418107 40.0144233,20.0299588 C40.0144233,18.5548971 39.8019802,17.1851852 39.5895371,15.8156379 L27.2776238,15.8156379 C27.3839282,15.0781893 27.5957079,14.4460905 27.8083168,13.7084774 L38.846401,13.7084774 C38.6346213,12.9710288 38.3158738,12.2334156 37.9977896,11.6013169 L28.6575916,11.6013169 C28.9756757,10.8645267 29.4005619,10.2317695 29.8249505,9.49497942 L36.9360718,9.49497942 C36.5116832,8.75736626 35.9811559,8.0199177 35.3443243,7.38781893 L31.4171955,7.38781893 C32.0540272,6.65020576 32.6908589,6.018107 33.433995,5.38617284 C29.9310891,2.12032922 25.1548515,0.224032922 19.9540594,0.224032922 C19.9540594,0.0131687243 19.9540594,0.0131687243 19.8479208,0.0131687243 Z" id="Fill-5" fill="#FF5050" mask="url(#mask-4)"></path>
                        <path d="M0,19.9244444 C0,30.8806584 8.91597525,39.8357202 20.0603639,39.8357202 C25.2609901,39.8357202 29.9310891,37.8340741 33.5394703,34.6730864 C34.2826064,34.0409877 34.9194381,33.3033745 35.556104,32.5665844 L31.4171955,32.5665844 C30.886005,31.9344856 30.3554777,31.1968724 29.9310891,30.5649383 L37.0422104,30.5649383 C37.4672624,29.9328395 37.8914851,29.1952263 38.2095693,28.4577778 L28.7637302,28.4577778 C28.4451485,27.825679 28.1270644,27.0880658 27.9144554,26.3506173 L38.9527054,26.3506173 C39.5895371,24.3489712 40.0144233,22.2418107 40.0144233,20.0299588 C40.0144233,18.5548971 39.8019802,17.1851852 39.5895371,15.8156379 L27.2776238,15.8156379 C27.3839282,15.0781893 27.5957079,14.4460905 27.8083168,13.7084774 L38.846401,13.7084774 C38.6346213,12.9710288 38.3158738,12.2334156 37.9977896,11.6013169 L28.6575916,11.6013169 C28.9756757,10.8645267 29.4005619,10.2317695 29.8249505,9.49497942 L36.9360718,9.49497942 C36.5116832,8.75736626 35.9811559,8.0199177 35.3443243,7.38781893 L31.4171955,7.38781893 C32.0540272,6.65020576 32.6908589,6.018107 33.433995,5.38617284 C29.9310891,2.12032922 25.1548515,0.224032922 19.9540594,0.224032922 L19.8479208,0.224032922" id="Fill-6" fill="#E52836" mask="url(#mask-4)"></path>
                    </g>
                    <path d="M20.0603639,39.8357202 C25.2609901,39.8357202 29.9310891,37.8340741 33.5394703,34.6730864 C34.2826064,34.0409877 34.9194381,33.3033745 35.556104,32.5665844 L31.4171955,32.5665844 C30.886005,31.9344856 30.3554777,31.1968724 29.9310891,30.5649383 L37.0422104,30.5649383 C37.4672624,29.9328395 37.8914851,29.1952263 38.2095693,28.4577778 L28.7637302,28.4577778 C28.4451485,27.825679 28.1270644,27.0880658 27.9144554,26.3506173 L38.9527054,26.3506173 C39.5895371,24.3489712 40.0144233,22.2418107 40.0144233,20.0299588 C40.0144233,18.5548971 39.8019802,17.1851852 39.5895371,15.8156379 L27.2776238,15.8156379 C27.3839282,15.0781893 27.5957079,14.4460905 27.8083168,13.7084774 L38.846401,13.7084774 C38.6346213,12.9710288 38.3158738,12.2334156 37.9977896,11.6013169 L28.6575916,11.6013169 C28.9756757,10.8645267 29.4005619,10.2317695 29.8249505,9.49497942 L36.9360718,9.49497942 C36.5116832,8.75736626 35.9811559,8.0199177 35.3443243,7.38781893 L31.4171955,7.38781893 C32.0540272,6.65020576 32.6908589,6.018107 33.433995,5.38617284 C29.9310891,2.12032922 25.1548515,0.224032922 19.9540594,0.224032922 L19.8479208,0.224032922" id="Fill-8" fill="#CB2026"></path>
                    <path d="M27.1714851,24.98107 L27.4902327,23.1902881 C27.3839282,23.1902881 27.1714851,23.2956379 26.9590421,23.2956379 C26.2159059,23.2956379 26.1102649,22.8739095 26.2159059,22.6637037 L26.853401,18.9759671 L28.0207599,18.9759671 L28.3388441,16.974321 L27.2776238,16.974321 L27.4902327,15.7101235 L25.3672946,15.7101235 C25.3672946,15.7101235 24.0936312,22.6637037 24.0936312,23.5060082 C24.0936312,24.7700412 24.8367673,25.2974486 25.7916832,25.2974486 C26.428349,25.2974486 26.9590421,25.0864198 27.1714851,24.98107 Z" id="Fill-9" fill="#FFFFFF"></path>
                    <path d="M27.9144554,21.6097119 C27.9144554,24.5598354 29.9310891,25.2974486 31.6291411,25.2974486 C33.2213861,25.2974486 33.8582178,24.98107 33.8582178,24.98107 L34.2826064,22.9794239 C34.2826064,22.9794239 33.1152475,23.5060082 32.0540272,23.5060082 C29.718646,23.5060082 30.143698,21.8205761 30.143698,21.8205761 L34.4950495,21.8205761 C34.4950495,21.8205761 34.813797,20.4510288 34.813797,19.9244444 C34.813797,18.5548971 34.0706609,16.8688066 31.7352797,16.8688066 C29.5068663,16.6586008 27.9144554,18.9759671 27.9144554,21.6097119 Z M31.6291411,18.5548971 C32.7971634,18.5548971 32.5845545,19.9244444 32.5845545,20.0299588 L30.2491733,20.0299588 C30.2491733,19.9244444 30.4617822,18.5548971 31.6291411,18.5548971 Z" id="Fill-10" fill="#FFFFFF"></path>
                    <path d="M45.1089109,24.98107 L45.5332995,22.6637037 C45.5332995,22.6637037 44.4720792,23.1902881 43.7291089,23.1902881 C42.2430025,23.1902881 41.6061708,22.0316049 41.6061708,20.766749 C41.6061708,18.2385185 42.8798342,16.8688066 44.3659406,16.8688066 C45.4276584,16.8688066 46.2762698,17.5009053 46.2762698,17.5009053 L46.5950173,15.2890535 C46.5950173,15.2890535 45.321354,14.7624691 44.1533317,14.7624691 C41.7124752,14.7624691 39.271453,16.8688066 39.271453,20.8722634 C39.271453,23.5060082 40.5449505,25.2974486 43.0922772,25.2974486 C43.941552,25.2974486 45.1089109,24.98107 45.1089109,24.98107 Z" id="Fill-11" fill="#FFFFFF"></path>
                    <path d="M15.4964035,16.6586008 C14.010297,16.6586008 12.9485792,17.0798354 12.9485792,17.0798354 L12.630495,18.8706173 C12.630495,18.8706173 13.5860743,18.4493827 14.9652129,18.4493827 C15.708349,18.4493827 16.3451807,18.5548971 16.3451807,19.1868313 C16.3451807,19.6080658 16.2395396,19.7135802 16.2395396,19.7135802 L15.2839604,19.7135802 C13.4797698,19.7135802 11.4631361,20.4510288 11.4631361,22.8739095 C11.4631361,24.7700412 12.7367995,25.1919342 13.4797698,25.1919342 C14.9652129,25.1919342 15.6020446,24.2434568 15.708349,24.2434568 L15.6020446,25.0864198 L17.513203,25.0864198 L18.3618144,19.2923457 C18.3618144,16.7641152 16.2395396,16.6586008 15.4964035,16.6586008 Z M15.9207921,21.3995062 C15.9207921,21.7152263 15.708349,23.4004938 14.4346856,23.4004938 C13.797854,23.4004938 13.5860743,22.8739095 13.5860743,22.5581893 C13.5860743,22.0316049 13.9041584,21.2939918 15.4964035,21.2939918 C15.8144876,21.3995062 15.9207921,21.3995062 15.9207921,21.3995062 Z" id="Fill-12" fill="#FFFFFF"></path>
                    <path d="M20.378448,25.1919342 C20.9089752,25.1919342 23.5624406,25.2974486 23.5624406,22.4526749 C23.5624406,19.81893 21.0152797,20.345679 21.0152797,19.2923457 C21.0152797,18.7657613 21.4401658,18.5548971 22.183302,18.5548971 C22.5013861,18.5548971 23.668745,18.6602469 23.668745,18.6602469 L23.9874926,16.7641152 C23.9874926,16.7641152 23.2443564,16.5530864 21.9706931,16.5530864 C20.378448,16.5530864 18.7867005,17.1851852 18.7867005,19.2923457 C18.7867005,21.7152263 21.4401658,21.5043621 21.4401658,22.4526749 C21.4401658,23.0847737 20.6971955,23.1902881 20.1666683,23.1902881 C19.2110891,23.1902881 18.2555099,22.8739095 18.2555099,22.8739095 L17.9374257,24.7700412 C18.0437302,24.98107 18.5742574,25.1919342 20.378448,25.1919342 Z" id="Fill-13" fill="#FFFFFF"></path>
                    <path d="M62.7275891,14.9726749 L62.3033663,17.817284 C62.3033663,17.817284 61.4540916,16.7641152 60.2867327,16.7641152 C58.3762376,16.7641152 56.6783515,19.0814815 56.6783515,21.8205761 C56.6783515,23.5060082 57.5269629,25.2974486 59.3318168,25.2974486 C60.6053144,25.2974486 61.3484505,24.454321 61.3484505,24.454321 L61.242146,25.1919342 L63.3644208,25.1919342 L64.9568317,15.0781893 L62.7275891,14.9726749 Z M61.7726733,20.5565432 C61.7726733,21.7152263 61.242146,23.1902881 60.0741238,23.1902881 C59.3318168,23.1902881 58.9067649,22.5581893 58.9067649,21.5043621 C58.9067649,19.81893 59.649901,18.7657613 60.6053144,18.7657613 C61.3484505,18.7657613 61.7726733,19.2923457 61.7726733,20.5565432 Z" id="Fill-14" fill="#FFFFFF"></path>
                    <polygon id="Fill-15" fill="#FFFFFF" points="3.92712871 25.0864198 5.20062624 17.5009053 5.41323515 25.0864198 6.89934158 25.0864198 9.65828218 17.5009053 8.49092327 25.0864198 10.7201658 25.0864198 12.418052 14.9726749 8.91597525 14.9726749 6.79303713 21.188642 6.68673267 14.9726749 3.60904455 14.9726749 1.91049505 25.0864198"></polygon>
                    <path d="M36.8297673,25.0864198 C37.4672624,21.6097119 37.5729035,18.7657613 39.0590099,19.2923457 C39.271453,17.9227984 39.5895371,17.396214 39.8019802,16.8688066 L39.3775916,16.8688066 C38.4221782,16.8688066 37.6790421,18.1330041 37.6790421,18.1330041 L37.8914851,16.974321 L35.8748515,16.974321 L34.4950495,25.1919342 L36.8297673,25.1919342 L36.8297673,25.0864198 Z" id="Fill-16" fill="#FFFFFF"></path>
                    <path d="M49.991453,16.6586008 C48.5053465,16.6586008 47.4436287,17.0798354 47.4436287,17.0798354 L47.1255446,18.8706173 C47.1255446,18.8706173 48.0811238,18.4493827 49.4602624,18.4493827 C50.2033985,18.4493827 50.8402302,18.5548971 50.8402302,19.1868313 C50.8402302,19.6080658 50.7345891,19.7135802 50.7345891,19.7135802 L49.7790099,19.7135802 C47.9748193,19.7135802 45.9581856,20.4510288 45.9581856,22.8739095 C45.9581856,24.7700412 47.231849,25.1919342 47.9748193,25.1919342 C49.4602624,25.1919342 50.0970941,24.2434568 50.2033985,24.2434568 L50.0970941,25.0864198 L52.0082525,25.0864198 L52.8568639,19.2923457 C52.9630025,16.7641152 50.7345891,16.6586008 49.991453,16.6586008 Z M50.522146,21.3995062 C50.522146,21.7152263 50.3095371,23.4004938 49.0360396,23.4004938 C48.3992079,23.4004938 48.1867649,22.8739095 48.1867649,22.5581893 C48.1867649,22.0316049 48.5053465,21.2939918 50.0970941,21.2939918 C50.4158416,21.3995062 50.4158416,21.3995062 50.522146,21.3995062 Z" id="Fill-17" fill="#FFFFFF"></path>
                    <path d="M54.6617178,25.0864198 C55.2983837,21.6097119 55.4040248,18.7657613 56.8901312,19.2923457 C57.1025743,17.9227984 57.4206584,17.396214 57.6332673,16.8688066 L57.2088787,16.8688066 C56.2532995,16.8688066 55.5103292,18.1330041 55.5103292,18.1330041 L55.7227723,16.974321 L53.7061386,16.974321 L52.3263366,25.1919342 L54.6617178,25.1919342 L54.6617178,25.0864198 Z" id="Fill-18" fill="#FFFFFF"></path>
                    <path d="M23.8811881,23.5060082 C23.8811881,24.7700412 24.6241584,25.2974486 25.5790743,25.2974486 C26.3222104,25.2974486 26.9590421,25.0864198 27.1714851,24.98107 L27.4902327,23.1902881 C27.3839282,23.1902881 27.1714851,23.2956379 26.9590421,23.2956379 C26.2159059,23.2956379 26.1102649,22.8739095 26.2159059,22.6637037 L26.853401,18.9759671 L28.0207599,18.9759671 L28.3388441,16.974321 L27.2776238,16.974321 L27.4902327,15.7101235" id="Fill-19" fill="#DCE5E5"></path>
                    <path d="M28.9756757,21.6097119 C28.9756757,24.5598354 29.9310891,25.2974486 31.6291411,25.2974486 C33.2213861,25.2974486 33.8582178,24.98107 33.8582178,24.98107 L34.2826064,22.9794239 C34.2826064,22.9794239 33.1152475,23.5060082 32.0540272,23.5060082 C29.718646,23.5060082 30.143698,21.8205761 30.143698,21.8205761 L34.4950495,21.8205761 C34.4950495,21.8205761 34.813797,20.4510288 34.813797,19.9244444 C34.813797,18.5548971 34.0706609,16.8688066 31.7352797,16.8688066 C29.5068663,16.6586008 28.9756757,18.9759671 28.9756757,21.6097119 Z M31.6291411,18.5548971 C32.7971634,18.5548971 33.0089431,19.9244444 33.0089431,20.0299588 L30.2491733,20.0299588 C30.2491733,19.9244444 30.4617822,18.5548971 31.6291411,18.5548971 Z" id="Fill-20" fill="#DCE5E5"></path>
                    <path d="M45.1089109,24.98107 L45.5332995,22.6637037 C45.5332995,22.6637037 44.4720792,23.1902881 43.7291089,23.1902881 C42.2430025,23.1902881 41.6061708,22.0316049 41.6061708,20.766749 C41.6061708,18.2385185 42.8798342,16.8688066 44.3659406,16.8688066 C45.4276584,16.8688066 46.2762698,17.5009053 46.2762698,17.5009053 L46.5950173,15.2890535 C46.5950173,15.2890535 45.321354,14.7624691 44.1533317,14.7624691 C41.7124752,14.7624691 40.3325074,16.8688066 40.3325074,20.8722634 C40.3325074,23.5060082 40.5449505,25.2974486 43.0922772,25.2974486 C43.941552,25.2974486 45.1089109,24.98107 45.1089109,24.98107 Z" id="Fill-21" fill="#DCE5E5"></path>
                    <path d="M12.630495,18.9759671 C12.630495,18.9759671 13.5860743,18.5548971 14.9652129,18.5548971 C15.708349,18.5548971 16.3451807,18.6602469 16.3451807,19.2923457 C16.3451807,19.7135802 16.2395396,19.81893 16.2395396,19.81893 L15.2839604,19.81893 C13.4797698,19.81893 11.4631361,20.5565432 11.4631361,22.9794239 C11.4631361,24.8755556 12.7367995,25.2974486 13.4797698,25.2974486 C14.9652129,25.2974486 15.6020446,24.3489712 15.708349,24.3489712 L15.6020446,25.1919342 L17.513203,25.1919342 L18.3618144,19.3978601 C18.3618144,16.974321 16.2395396,16.8688066 15.3902649,16.8688066 L12.630495,18.9759671 Z M16.9818465,21.3995062 C16.9818465,21.7152263 15.708349,23.4004938 14.4346856,23.4004938 C13.797854,23.4004938 13.5860743,22.8739095 13.5860743,22.5581893 C13.5860743,22.0316049 13.9041584,21.2939918 15.4964035,21.2939918 C15.8144876,21.3995062 16.9818465,21.3995062 16.9818465,21.3995062 Z" id="Fill-22" fill="#DCE5E5"></path>
                    <path d="M18.0437302,24.98107 C18.0437302,24.98107 18.6805619,25.1919342 20.4847525,25.1919342 C21.0152797,25.1919342 23.668745,25.2974486 23.668745,22.4526749 C23.668745,19.81893 21.1214183,20.345679 21.1214183,19.2923457 C21.1214183,18.7657613 21.5464703,18.5548971 22.2887772,18.5548971 C22.6075248,18.5548971 23.7748837,18.6602469 23.7748837,18.6602469 L24.0936312,16.7641152 C24.0936312,16.7641152 23.3506609,16.5530864 22.0769975,16.5530864 C20.4847525,16.5530864 19.9540594,17.1851852 19.9540594,19.2923457 C19.9540594,21.7152263 21.5464703,21.5043621 21.5464703,22.4526749 C21.5464703,23.0847737 20.8033342,23.1902881 20.2721436,23.1902881" id="Fill-23" fill="#DCE5E5"></path>
                    <path d="M62.3033663,17.817284 C62.3033663,17.817284 61.4540916,16.7641152 60.2867327,16.7641152 C58.3762376,16.7641152 57.7394059,19.0814815 57.7394059,21.8205761 C57.7394059,23.5060082 57.5269629,25.2974486 59.3318168,25.2974486 C60.6053144,25.2974486 61.3484505,24.454321 61.3484505,24.454321 L61.242146,25.1919342 L63.3644208,25.1919342 L64.9568317,15.0781893 L62.3033663,17.817284 Z M62.1970619,20.5565432 C62.1970619,21.7152263 61.242146,23.1902881 60.0741238,23.1902881 C59.3318168,23.1902881 58.9067649,22.5581893 58.9067649,21.5043621 C58.9067649,19.81893 59.649901,18.7657613 60.6053144,18.7657613 C61.3484505,18.7657613 62.1970619,19.2923457 62.1970619,20.5565432 Z" id="Fill-24" fill="#DCE5E5"></path>
                    <polygon id="Fill-25" fill="#DCE5E5" points="3.92712871 25.0864198 5.20062624 17.5009053 5.41323515 25.0864198 6.89934158 25.0864198 9.65828218 17.5009053 8.49092327 25.0864198 10.7201658 25.0864198 12.418052 14.9726749 9.76458663 14.9726749 6.79303713 21.188642 6.68673267 14.9726749 5.51937376 14.9726749 1.91049505 25.0864198"></polygon>
                    <path d="M34.601354,25.0864198 L36.8297673,25.0864198 C37.4672624,21.6097119 37.5729035,18.7657613 39.0590099,19.2923457 C39.271453,17.9227984 39.5895371,17.396214 39.8019802,16.8688066 L39.3775916,16.8688066 C38.4221782,16.8688066 37.6790421,18.1330041 37.6790421,18.1330041 L37.8914851,16.974321" id="Fill-26" fill="#DCE5E5"></path>
                    <path d="M47.1255446,18.9759671 C47.1255446,18.9759671 48.0811238,18.5548971 49.4602624,18.5548971 C50.2033985,18.5548971 50.8402302,18.6602469 50.8402302,19.2923457 C50.8402302,19.7135802 50.7345891,19.81893 50.7345891,19.81893 L49.7790099,19.81893 C47.9748193,19.81893 45.9581856,20.5565432 45.9581856,22.9794239 C45.9581856,24.8755556 47.231849,25.2974486 47.9748193,25.2974486 C49.4602624,25.2974486 50.0970941,24.3489712 50.2033985,24.3489712 L50.0970941,25.1919342 L52.0082525,25.1919342 L52.8568639,19.3978601 C52.8568639,16.974321 50.7345891,16.8688066 49.8853144,16.8688066 L47.1255446,18.9759671 Z M51.476896,21.3995062 C51.476896,21.7152263 50.2033985,23.4004938 48.9297351,23.4004938 C48.2929035,23.4004938 48.0811238,22.8739095 48.0811238,22.5581893 C48.0811238,22.0316049 48.3992079,21.2939918 49.991453,21.2939918 C50.4158416,21.3995062 51.476896,21.3995062 51.476896,21.3995062 Z" id="Fill-27" fill="#DCE5E5"></path>
                    <path d="M52.4324752,25.0864198 L54.6617178,25.0864198 C55.2983837,21.6097119 55.4040248,18.7657613 56.8901312,19.2923457 C57.1025743,17.9227984 57.4206584,17.396214 57.6332673,16.8688066 L57.2088787,16.8688066 C56.2532995,16.8688066 55.5103292,18.1330041 55.5103292,18.1330041 L55.7227723,16.974321" id="Fill-28" fill="#DCE5E5"></path>
                </g>
                <g id="mastercard-(1)" transform="translate(77.000000, 0.000000)">
                    <g id="Group-4">
                        <mask id="mask-6" fill="white">
                            <use xlink:href="#path-5"></use>
                        </mask>
                        <g id="Clip-2"></g>
                        <path d="M33.433995,34.6730864 C37.4672624,31.0915226 40.0144233,25.8240329 40.0144233,19.9244444 C40.0144233,14.024856 37.4672624,8.86288066 33.433995,5.17514403 C29.9310891,2.01481481 25.1548515,0.0131687243 20.0603639,0.0131687243 C9.0214505,0.0131687243 0,8.96757202 0,19.9244444 C0,30.8806584 9.0214505,39.7302058 20.0603639,39.7302058 C25.1548515,39.8357202 29.9310891,37.8340741 33.433995,34.6730864 Z" id="Fill-1" fill="#07A9E2" mask="url(#mask-6)"></path>
                        <path d="M0,19.9244444 C0,30.8806584 9.0214505,39.7302058 20.0603639,39.7302058 C25.2609901,39.7302058 29.9310891,37.8340741 33.433995,34.5682305 C37.4672624,30.9860082 40.0144233,25.7185185 40.0144233,19.81893 C40.0144233,13.9193416 37.4672624,8.86288066 33.433995,5.17514403 C29.9310891,2.01481481 25.1548515,0.0131687243 20.0603639,0.0131687243" id="Fill-3" fill="#009DDD" mask="url(#mask-6)"></path>
                    </g>
                    <path d="M33.433995,5.17514403 C29.9310891,2.01481481 25.1548515,0.0131687243 20.0603639,0.0131687243 L19.1047847,0.0131687243 C12.8429381,4.54320988 8.80967079,11.8123457 8.80967079,19.9244444 C8.80967079,28.0358848 12.8429381,35.3050206 18.998646,39.7302058 L19.9540594,39.7302058 C25.1548515,39.7302058 29.8249505,37.8340741 33.3276906,34.5682305 C37.3609579,30.9860082 39.9082847,25.7185185 39.9082847,19.81893 C39.9082847,13.9193416 37.4672624,8.86288066 33.433995,5.17514403 Z" id="Fill-5" fill="#0284CC"></path>
                    <path d="M46.9131015,0.0131687243 C41.7124752,0.0131687243 37.0422104,1.90946502 33.433995,5.17514403 C32.6908589,5.8072428 32.0540272,6.54485597 31.4171955,7.28230453 L35.4506287,7.28230453 C35.9811559,7.91440329 36.5116832,8.65185185 36.9360718,9.38946502 L29.8249505,9.38946502 C29.4005619,10.1269136 28.9756757,10.7590123 28.6575916,11.4966255 L38.1040941,11.4966255 C38.4221782,12.2334156 38.7409257,12.8655144 38.9527054,13.6031276 L27.9144554,13.6031276 C27.7020124,14.3405761 27.4902327,14.9726749 27.2776238,15.7101235 L39.5895371,15.7101235 C39.9082847,17.0798354 40.0144233,18.4493827 40.0144233,19.9244444 C40.0144233,22.1362963 39.6956757,24.2434568 38.9527054,26.2451029 L27.9144554,26.2451029 C28.1270644,26.982716 28.4451485,27.6148148 28.7637302,28.3522634 L38.2095693,28.3522634 C37.8914851,29.0898765 37.4672624,29.8273251 37.0422104,30.4594239 L29.9310891,30.4594239 C30.3554777,31.1968724 30.886005,31.9344856 31.4171955,32.5665844 L35.4506287,32.5665844 C34.813797,33.3033745 34.176302,34.0409877 33.433995,34.6730864 C37.0422104,37.8340741 41.7124752,39.8357202 46.9131015,39.8357202 C57.951849,39.8357202 66.8671609,30.9860082 66.8671609,20.0299588 C66.8671609,8.96757202 57.951849,0.0131687243 46.9131015,0.0131687243 Z" id="Fill-6" fill="#FF2957"></path>
                    <path d="M46.9131015,0.0131687243 C41.7124752,0.0131687243 37.0422104,1.90946502 33.433995,5.17514403 C32.6908589,5.8072428 32.0540272,6.54485597 31.4171955,7.28230453 L35.4506287,7.28230453 C35.9811559,7.91440329 36.5116832,8.65185185 36.9360718,9.38946502 L29.8249505,9.38946502 C29.4005619,10.1269136 28.9756757,10.7590123 28.6575916,11.4966255 L38.1040941,11.4966255 C38.4221782,12.2334156 38.7409257,12.8655144 38.9527054,13.6031276 L27.9144554,13.6031276 C27.7020124,14.3405761 27.4902327,14.9726749 27.2776238,15.7101235 L39.5895371,15.7101235 C39.9082847,17.0798354 40.0144233,18.4493827 40.0144233,19.9244444 C40.0144233,22.1362963 39.6956757,24.2434568 38.9527054,26.2451029 L27.9144554,26.2451029 C28.1270644,26.982716 28.4451485,27.6148148 28.7637302,28.3522634 L38.2095693,28.3522634 C37.8914851,29.0898765 37.4672624,29.8273251 37.0422104,30.4594239 L29.9310891,30.4594239 C30.3554777,31.1968724 30.886005,31.9344856 31.4171955,32.5665844 L35.4506287,32.5665844 C34.813797,33.3033745 34.176302,34.0409877 33.433995,34.6730864 C37.0422104,37.8340741 41.7124752,39.8357202 46.9131015,39.8357202 C57.951849,39.8357202 66.8671609,30.9860082 66.8671609,20.0299588" id="Fill-7" fill="#ED1C2E"></path>
                    <path d="M33.433995,34.6730864 C37.4672624,31.0915226 40.0144233,25.8240329 40.0144233,19.9244444 C40.0144233,14.024856 37.4672624,8.86288066 33.433995,5.17514403 L33.433995,34.6730864 Z" id="Fill-8" fill="#0466B5"></path>
                    <path d="M59.9686485,24.2434568 C59.9686485,23.9277366 60.2867327,23.611358 60.6053144,23.611358 C60.9233985,23.611358 61.242146,23.9277366 61.242146,24.2434568 C61.242146,24.5598354 60.9233985,24.8755556 60.6053144,24.8755556 C60.2867327,24.8755556 59.9686485,24.5598354 59.9686485,24.2434568 Z M60.6053144,24.7700412 C60.9233985,24.7700412 61.029703,24.5598354 61.029703,24.2434568 C61.029703,23.9277366 60.8172599,23.8223868 60.6053144,23.8223868 C60.2867327,23.8223868 60.0741238,24.033251 60.0741238,24.2434568 C60.0741238,24.454321 60.3928713,24.7700412 60.6053144,24.7700412 Z M60.6053144,24.454321 L60.4991757,24.454321 L60.4991757,23.9277366 L60.8172599,23.9277366 L60.9233985,24.033251 C60.9233985,24.138107 60.9233985,24.138107 60.8172599,24.138107 L60.9233985,24.3489712 L60.8172599,24.3489712 L60.7109554,24.138107 L60.6053144,24.138107 L60.6053144,24.454321 Z M60.6053144,24.138107 L60.7109554,24.138107 L60.7109554,24.033251 L60.6053144,24.033251 L60.6053144,24.138107 Z" id="Fill-9" fill="#FFFFFF"></path>
                    <path d="M33.433995,5.17514403 C32.6908589,5.8072428 32.0540272,6.54485597 31.4171955,7.28230453 L35.4506287,7.28230453 C35.9811559,7.91440329 36.5116832,8.65185185 36.9360718,9.38946502 L29.8249505,9.38946502 C29.4005619,10.1269136 28.9756757,10.7590123 28.6575916,11.4966255 L38.1040941,11.4966255 C38.4221782,12.2334156 38.7409257,12.8655144 38.9527054,13.6031276 L27.9144554,13.6031276 C27.7020124,14.3405761 27.4902327,14.9726749 27.2776238,15.7101235 L39.5895371,15.7101235 C39.9082847,17.0798354 40.0144233,18.4493827 40.0144233,19.9244444 C40.0144233,22.1362963 39.6956757,24.2434568 38.9527054,26.2451029 L27.9144554,26.2451029 C28.1270644,26.982716 28.4451485,27.6148148 28.7637302,28.3522634 L38.2095693,28.3522634 C37.8914851,29.0898765 37.4672624,29.8273251 37.0422104,30.4594239 L29.9310891,30.4594239 C30.3554777,31.1968724 30.886005,31.9344856 31.4171955,32.5665844 L35.4506287,32.5665844 C34.813797,33.3033745 34.176302,34.0409877 33.433995,34.6730864 C37.0422104,37.8340741 41.7124752,39.8357202 46.9131015,39.8357202 L47.8686807,39.8357202 C54.0248861,35.410535 58.0574901,28.1413992 58.0574901,20.0299588 C58.0574901,11.9176955 54.0248861,4.64855967 47.8686807,0.224032922 L46.9131015,0.224032922 C41.7124752,0.0131687243 37.0422104,2.01481481 33.433995,5.17514403 Z" id="Fill-10" fill="#D1094B"></path>
                    <polygon id="Fill-11" fill="#FFFFFF" points="17.513203 24.8755556 14.9652129 24.8755556 16.4513193 17.1851852 13.0548837 24.8755556 10.8263045 24.8755556 10.4014183 17.1851852 8.91597525 24.8755556 6.68673267 24.8755556 8.59722772 14.7624691 12.5243564 14.7624691 12.7367995 21.0831276 15.4964035 14.7624691 19.5298366 14.7624691"></polygon>
                    <path d="M15.0715173,20.4510288 L16.5576238,17.1851852 L15.3902649,23.2956379 C15.4964035,23.8223868 15.6020446,24.454321 15.8144876,24.98107 L17.513203,24.98107 L19.4235322,14.8671605 L15.708349,14.8671605 C15.2839604,16.4477366 14.9652129,18.2385185 14.9652129,20.0299588 C15.0715173,20.1346502 15.0715173,20.2401646 15.0715173,20.4510288 Z" id="Fill-12" fill="#DCE5E5"></path>
                    <path d="M45.321354,24.7700412 C44.5783837,24.98107 44.1533317,25.0864198 43.5165,25.0864198 C42.2430025,25.0864198 41.6061708,24.454321 41.6061708,23.2956379 C41.6061708,23.0847737 41.6061708,22.8739095 41.7124752,22.5581893 L41.8186139,21.7152263 L41.9249183,21.0831276 L43.0922772,14.8671605 L45.5332995,14.8671605 L45.2152153,16.7641152 L46.4887129,16.7641152 L46.1699653,18.6602469 L44.8964678,18.6602469 L44.2596361,22.0316049 C44.2596361,22.1362963 44.1533317,22.3473251 44.1533317,22.3473251 C44.1533317,22.7683951 44.4720792,22.9794239 45.0026064,22.9794239 C45.321354,22.9794239 45.5332995,22.9794239 45.6394381,22.8739095 L45.321354,24.7700412 Z" id="Fill-13" fill="#DCE5E5"></path>
                    <path d="M52.6449183,16.7641152 C52.4324752,16.6586008 52.4324752,16.6586008 52.3263366,16.6586008 C52.2200322,16.6586008 52.1137277,16.6586008 52.1137277,16.5530864 L51.7956436,16.5530864 C50.9463688,16.5530864 50.4158416,16.8688066 49.6728713,17.9227984 L49.8853144,16.6586008 L47.6560718,16.6586008 L46.1699653,24.8755556 L48.7179554,24.8755556 C49.5665668,19.81893 49.991453,18.9759671 51.1588119,18.9759671 L51.476896,18.9759671 L51.7956436,19.0814815 L52.6449183,16.7641152 Z" id="Fill-14" fill="#DCE5E5"></path>
                    <path d="M35.4506287,19.2923457 C35.4506287,20.345679 36.0874604,21.0831276 37.3609579,21.5043621 C38.4221782,21.9260905 38.5283168,22.0316049 38.5283168,22.4526749 C38.5283168,22.9794239 38.1040941,23.1902881 37.0422104,23.1902881 C36.2992401,23.1902881 35.556104,23.0847737 34.813797,22.8739095 L34.4950495,24.7700412 L34.601354,24.7700412 L35.0255767,24.8755556 L35.6624084,24.8755556 C36.2992401,24.98107 36.7241262,24.98107 37.0422104,24.98107 C39.6956757,24.98107 40.9693391,24.138107 40.9693391,22.2418107 C40.9693391,21.0831276 40.4388119,20.4510288 39.1651485,19.9244444 C38.1040941,19.5025514 37.9977896,19.3978601 37.9977896,19.0814815 C37.9977896,18.6602469 38.4221782,18.4493827 39.271453,18.4493827 C39.6956757,18.4493827 40.4388119,18.4493827 41.0756436,18.5548971 L41.3943911,16.6586008 C40.7575594,16.5530864 39.8019802,16.5530864 39.1651485,16.5530864 C36.4055446,16.5530864 35.4506287,17.817284 35.4506287,19.2923457 Z" id="Fill-15" fill="#DCE5E5"></path>
                    <path d="M25.5790743,24.8755556 L23.5624406,24.8755556 L23.5624406,24.033251 C22.9256089,24.6653498 22.0769975,24.98107 20.9089752,24.98107 C19.5298366,24.98107 18.6805619,24.033251 18.6805619,22.7683951 C18.6805619,20.766749 20.2721436,19.6080658 23.0319134,19.6080658 L24.0936312,19.6080658 C24.1999356,19.2923457 24.1999356,19.1868313 24.1999356,19.0814815 C24.1999356,18.5548971 23.7748837,18.3438683 22.6075248,18.3438683 C21.8645545,18.3438683 21.1214183,18.4493827 20.5908911,18.5548971 L20.2721436,18.6602469 L20.0603639,18.6602469 L20.378448,16.8688066 C21.6521114,16.5530864 22.3950817,16.4477366 23.3506609,16.4477366 C25.473599,16.4477366 26.6409579,17.2906996 26.6409579,18.8706173 C26.6409579,19.2923457 26.6409579,19.6080658 26.428349,20.5565432 L25.8978218,23.5060082 L25.7916832,24.033251 L25.6853787,24.454321 L25.6853787,24.7700412 L25.5790743,24.8755556 Z M23.7748837,21.188642 L23.2443564,21.188642 C21.8645545,21.188642 21.1214183,21.6097119 21.1214183,22.4526749 C21.1214183,22.9794239 21.4401658,23.2956379 21.9706931,23.2956379 C23.0319134,23.2956379 23.7748837,22.4526749 23.7748837,21.188642 Z" id="Fill-16" fill="#DCE5E5"></path>
                    <path d="M33.7520792,24.6653498 C32.9026386,24.8755556 32.0540272,24.98107 31.2047525,24.98107 C28.4451485,24.98107 26.9590421,23.7168724 26.9590421,21.2939918 C26.9590421,18.4493827 28.7637302,16.4477366 31.3110569,16.4477366 C33.3276906,16.4477366 34.601354,17.6064198 34.601354,19.3978601 C34.601354,20.0299588 34.4950495,20.5565432 34.2826064,21.3995062 L29.2944233,21.3995062 L29.2944233,21.7152263 C29.2944233,22.6637037 30.0373936,23.1902881 31.4171955,23.1902881 C32.3721114,23.1902881 33.1152475,23.0847737 33.9645223,22.6637037 L33.7520792,24.6653498 Z M32.4784158,19.81893 L32.4784158,19.3978601 C32.4784158,18.7657613 32.0540272,18.3438683 31.3110569,18.3438683 C30.5679208,18.3438683 29.9310891,18.8706173 29.718646,19.81893 L32.4784158,19.81893 Z" id="Fill-17" fill="#DCE5E5"></path>
                    <path d="M60.3928713,21.188642 C59.9686485,23.9277366 58.0574901,25.0864198 55.5103292,25.0864198 C52.7505594,25.0864198 51.5832005,23.4004938 51.5832005,21.2939918 C51.5832005,18.4493827 53.4936955,16.4477366 56.4657426,16.4477366 C59.0130693,16.4477366 60.3928713,18.1330041 60.3928713,20.1346502 L60.3928713,21.188642 Z M57.7394059,20.1346502 C57.7394059,19.2923457 57.4206584,18.5548971 56.359604,18.5548971 C55.0859406,18.5548971 54.3429703,20.0299588 54.3429703,21.3995062 C54.3429703,22.4526749 54.8734975,23.1902881 55.7227723,23.1902881 C56.2532995,23.1902881 57.4206584,22.4526749 57.6332673,21.188642 C57.7394059,20.766749 57.7394059,20.4510288 57.7394059,20.1346502 Z" id="Fill-18" fill="#FFFFFF"></path>
                </g>
                <g id="american-express" transform="translate(271.000000, 3.000000)">
                    <polygon id="Fill-1" fill="#2FABF7" points="8.55420792 8.78698582 12.0398515 8.78698582 10.2975248 4.33925532"></polygon>
                    <g id="Group-5">
                        <mask id="mask-8" fill="white">
                            <use xlink:href="#path-7"></use>
                        </mask>
                        <g id="Clip-3"></g>
                        <path d="M51.8022277,4.97421986 C51.4851485,4.81535461 51.0094059,4.81535461 50.5346535,4.81535461 L47.3660891,4.81535461 L47.3660891,7.35769504 L50.5346535,7.35769504 C51.0094059,7.35769504 51.4851485,7.35769504 51.8022277,7.19858156 C52.1185644,7.03971631 52.2769802,6.56361702 52.2769802,6.08652482 C52.4356436,5.45131206 52.1185644,5.13333333 51.8022277,4.97421986 Z" id="Fill-2" fill="#228FE0" mask="url(#mask-8)"></path>
                        <path d="M85.7024752,0.208510638 L85.7024752,2.11489362 L84.7519802,0.208510638 L77.3069307,0.208510638 L77.3069307,2.11489362 L76.3564356,0.208510638 L66.2178218,0.208510638 C64.4752475,0.208510638 63.0492574,0.526489362 61.7826733,1.16170213 L61.7826733,0.208510638 L54.6537129,0.208510638 L54.6537129,1.16170213 C53.8618812,0.526489362 52.9113861,0.208510638 51.6438119,0.208510638 L26.1391089,0.208510638 L24.3957921,4.18014184 L22.6534653,0.208510638 L14.5740099,0.208510638 L14.5740099,2.11489362 L13.6235149,0.208510638 L6.81188119,0.208510638 L3.64331683,7.67468085 L0,15.935922 L8.07945545,15.935922 L9.02970297,13.3945745 L11.2477723,13.3945745 L12.1982673,15.935922 L21.3856436,15.935922 L21.3856436,14.0297872 L22.1787129,15.935922 L26.7722772,15.935922 L27.5641089,14.0297872 L27.5641089,15.935922 L49.5841584,15.935922 L49.5841584,11.8054255 L49.9014851,11.8054255 C50.2175743,11.8054255 50.2175743,11.8054255 50.2175743,12.2825177 L50.2175743,15.7770567 L61.6240099,15.7770567 L61.6240099,14.8238652 C62.574505,15.3009574 63.9997525,15.7770567 65.900495,15.7770567 L70.6537129,15.7770567 L71.6042079,13.235461 L73.8212871,13.235461 L74.7717822,15.7770567 L83.9601485,15.7770567 L83.9601485,13.3945745 L85.3863861,15.7770567 L92.8314356,15.7770567 L92.8314356,0.208510638 L85.7024752,0.208510638 Z M32.1589109,13.5536879 L29.465099,13.5536879 L29.465099,4.81535461 L25.6633663,13.5536879 L23.2866337,13.5536879 L19.484901,4.81535461 L19.484901,13.5536879 L14.0992574,13.5536879 L12.990099,11.1702128 L7.60371287,11.1702128 L6.65321782,13.7115603 L3.64331683,13.7115603 L8.39653465,2.43287234 L12.3569307,2.43287234 L16.7920792,13.0765957 L16.7920792,2.43287234 L21.0695545,2.43287234 L24.5542079,10.058156 L27.7227723,2.43287234 L32.1589109,2.43287234 L32.1589109,13.5536879 Z M42.9309406,4.81535461 L36.7524752,4.81535461 L36.7524752,6.88060284 L42.7725248,6.88060284 L42.7725248,9.10496454 L36.7524752,9.10496454 L36.7524752,11.3293262 L42.9309406,11.3293262 L42.9309406,13.7115603 L34.059901,13.7115603 L34.059901,2.43287234 L42.9309406,2.43287234 L42.9309406,4.81535461 Z M54.8121287,9.42294326 C55.1284653,10.058156 55.2868812,10.5352482 55.2868812,11.4881915 L55.2868812,13.7115603 L52.5940594,13.7115603 L52.5940594,12.2825177 C52.5940594,11.6463121 52.5940594,10.6931206 52.1185644,10.058156 C51.6438119,9.58205674 51.1680693,9.58205674 50.2175743,9.58205674 L47.3660891,9.58205674 L47.3660891,13.7115603 L44.6732673,13.7115603 L44.6732673,2.43287234 L50.6933168,2.43287234 C52.1185644,2.43287234 53.0688119,2.43287234 53.8618812,2.90897163 C54.6537129,3.38606383 55.1284653,4.18014184 55.1284653,5.45131206 C55.1284653,7.19858156 54.0193069,8.15177305 53.2274752,8.46975177 C54.0193069,8.62886525 54.4950495,9.10496454 54.8121287,9.42294326 Z M56.8717822,13.5536879 L59.564604,13.5536879 L59.564604,2.27375887 L56.8717822,2.27375887 L56.8717822,13.5536879 Z M90.7720297,13.5536879 L86.9700495,13.5536879 L81.9007426,5.13333333 L81.9007426,13.5536879 L76.515099,13.5536879 L75.564604,11.1702128 L70.0195545,11.1702128 L69.0690594,13.7115603 L66.0591584,13.7115603 C64.7925743,13.7115603 63.2076733,13.3945745 62.2574257,12.441383 C61.3069307,11.4881915 60.8321782,10.2170213 60.8321782,8.15177305 C60.8321782,6.56361702 61.1482673,4.97421986 62.2574257,3.70304965 C63.0492574,2.74985816 64.4752475,2.43287234 66.2178218,2.43287234 L68.7529703,2.43287234 L68.7529703,4.81535461 L66.2178218,4.81535461 C65.2673267,4.81535461 64.7925743,4.97421986 64.1581683,5.45131206 C63.6834158,5.92741135 63.3663366,6.88060284 63.3663366,7.99265957 C63.3663366,9.26382979 63.525,10.058156 64.1581683,10.6931206 C64.6339109,11.1702128 65.2673267,11.3293262 66.0591584,11.3293262 L67.1680693,11.3293262 L70.8113861,2.59198582 L74.7717822,2.59198582 L79.2079208,13.235461 L79.2079208,2.59198582 L83.1683168,2.59198582 L87.7621287,10.3761348 L87.7621287,2.59198582 L90.4556931,2.59198582 L90.4556931,13.5536879 L90.7720297,13.5536879 Z" id="Fill-4" fill="#0571C1" mask="url(#mask-8)"></path>
                    </g>
                    <polygon id="Fill-6" fill="#228FE0" points="70.9700495 8.78698582 74.6141089 8.78698582 72.8707921 4.33925532"></polygon>
                    <polygon id="Fill-7" fill="#228FE0" points="44.040099 31.6635816 44.040099 22.6080142 39.9210396 27.0567376"></polygon>
                    <polygon id="Fill-8" fill="#2FABF7" points="27.0893564 23.7203191 27.0893564 25.7855674 32.9507426 25.7855674 32.9507426 28.0099291 27.0893564 28.0099291 27.0893564 30.3934043 33.5841584 30.3934043 36.5940594 27.0567376 33.7425743 23.7203191"></polygon>
                    <path d="M50.0589109,23.7203191 L46.7329208,23.7203191 L46.7329208,26.5796454 L50.2175743,26.5796454 C51.1680693,26.5796454 51.8022277,26.1035461 51.8022277,25.1503546 C51.6438119,24.1974113 51.0094059,23.7203191 50.0589109,23.7203191 Z" id="Fill-9" fill="#228FE0"></path>
                    <path d="M99.009901,26.421773 L99.009901,19.2725887 L92.3566832,19.2725887 C90.9304455,19.2725887 89.8215347,19.5895745 89.029703,20.2257801 L89.029703,19.2725887 L81.7420792,19.2725887 C80.6341584,19.2725887 79.2079208,19.5895745 78.574505,20.2257801 L78.574505,19.2725887 L65.7430693,19.2725887 L65.7430693,20.2257801 C64.7925743,19.4314539 63.0492574,19.2725887 62.2574257,19.2725887 L53.7032178,19.2725887 L53.7032178,20.2257801 C52.9113861,19.4314539 51.0094059,19.2725887 50.0589109,19.2725887 L40.5544554,19.2725887 L38.3363861,21.6548227 L36.2769802,19.2725887 L22.0200495,19.2725887 L22.0200495,34.8411348 L35.9606436,34.8411348 L38.1777228,32.4586525 L40.2373762,34.8411348 L48.7923267,34.8411348 L48.7923267,31.1874823 L49.9014851,31.1874823 C51.0094059,31.1874823 52.4356436,31.1874823 53.5445545,30.7103901 L53.5445545,35 L60.6735149,35 L60.6735149,30.8695035 L60.989604,30.8695035 C61.4653465,30.8695035 61.4653465,30.8695035 61.4653465,31.3463475 L61.4653465,35 L83.0096535,35 C84.4358911,35 85.8611386,34.6820213 86.6529703,34.0468085 L86.6529703,35 L93.4658416,35 C94.8908416,35 96.3170792,34.8411348 97.2675743,34.205922 C98.8512376,33.2527305 99.8017327,31.5044681 99.8017327,29.4402128 C99.8017327,28.3279078 99.4856436,27.2158511 99.009901,26.421773 Z M49.9014851,28.9631206 L46.7329208,28.9631206 L46.7329208,32.7756383 L41.6633663,32.7756383 L38.4950495,29.1219858 L35.1678218,32.7756383 L24.7128713,32.7756383 L24.7128713,21.4969504 L35.3264851,21.4969504 L38.4950495,25.1503546 L41.8220297,21.4969504 L50.2175743,21.4969504 C52.2769802,21.4969504 54.6537129,22.1319149 54.6537129,25.1503546 C54.4950495,28.3279078 52.2769802,28.9631206 49.9014851,28.9631206 Z M65.7430693,28.3279078 C66.0591584,28.8040071 66.2178218,29.4402128 66.2178218,30.3934043 L66.2178218,32.616773 L63.525,32.616773 L63.525,31.1874823 C63.525,30.5512766 63.525,29.4402128 63.0492574,28.9631206 C62.7329208,28.4870213 62.0987624,28.4870213 61.1482673,28.4870213 L58.2970297,28.4870213 L58.2970297,32.616773 L55.6042079,32.616773 L55.6042079,21.3378369 L61.6240099,21.3378369 C62.8905941,21.3378369 63.9997525,21.3378369 64.7925743,21.8139362 C65.5844059,22.2910284 66.2178218,23.0851064 66.2178218,24.3562766 C66.2178218,26.1035461 65.1086634,27.0567376 64.3168317,27.3747163 C65.1086634,27.6919504 65.5844059,28.0099291 65.7430693,28.3279078 Z M76.6737624,23.7203191 L70.495297,23.7203191 L70.495297,25.7855674 L76.515099,25.7855674 L76.515099,28.0099291 L70.495297,28.0099291 L70.495297,30.2342908 L76.6737624,30.2342908 L76.6737624,32.616773 L67.8024752,32.616773 L67.8024752,21.3378369 L76.6737624,21.3378369 L76.6737624,23.7203191 Z M83.3269802,32.616773 L78.2574257,32.616773 L78.2574257,30.2342908 L83.3269802,30.2342908 C83.8017327,30.2342908 84.1188119,30.2342908 84.4358911,29.9163121 C84.5945545,29.7571986 84.7519802,29.4402128 84.7519802,29.1219858 C84.7519802,28.8040071 84.5945545,28.4870213 84.4358911,28.3279078 C84.2772277,28.1690426 83.9601485,28.0099291 83.485396,28.0099291 C80.9502475,27.8508156 77.9403465,28.0099291 77.9403465,24.5153901 C77.9403465,22.9262411 78.8908416,21.1787234 81.7420792,21.1787234 L86.9700495,21.1787234 L86.9700495,23.8791844 L82.0594059,23.8791844 C81.5846535,23.8791844 81.2673267,23.8791844 80.9502475,24.0382979 C80.6341584,24.1974113 80.6341584,24.5153901 80.6341584,24.8323759 C80.6341584,25.3094681 80.9502475,25.4685816 81.2673267,25.6264539 C81.5846535,25.7855674 81.9007426,25.7855674 82.2178218,25.7855674 L83.6440594,25.7855674 C85.0693069,25.7855674 86.019802,26.1035461 86.6529703,26.7387589 C87.1287129,27.2158511 87.4457921,28.0099291 87.4457921,29.1219858 C87.4457921,31.5044681 86.019802,32.616773 83.3269802,32.616773 Z M96.950495,31.5044681 C96.3170792,32.1406738 95.2081683,32.616773 93.6232673,32.616773 L88.5549505,32.616773 L88.5549505,30.2342908 L93.6232673,30.2342908 C94.0990099,30.2342908 94.4160891,30.2342908 94.7324257,29.9163121 C94.8908416,29.7571986 95.049505,29.4402128 95.049505,29.1219858 C95.049505,28.8040071 94.8908416,28.4870213 94.7324257,28.3279078 C94.5737624,28.1690426 94.2576733,28.0099291 93.7819307,28.0099291 C91.2477723,27.8508156 88.2376238,28.0099291 88.2376238,24.5153901 C88.2376238,22.9262411 89.1881188,21.1787234 92.039604,21.1787234 L97.2675743,21.1787234 L97.2675743,23.8791844 L92.5153465,23.8791844 C92.039604,23.8791844 91.7225248,23.8791844 91.4061881,24.0382979 C91.0891089,24.1974113 91.0891089,24.5153901 91.0891089,24.8323759 C91.0891089,25.3094681 91.2477723,25.4685816 91.7225248,25.6264539 C92.039604,25.7855674 92.3566832,25.7855674 92.6727723,25.7855674 L94.0990099,25.7855674 C95.5252475,25.7855674 96.4757426,26.1035461 97.1089109,26.7387589 C97.2675743,26.7387589 97.2675743,26.8978723 97.2675743,26.8978723 C97.7423267,27.5328369 97.9009901,28.3279078 97.9009901,29.1219858 C97.9009901,30.0751773 97.5836634,30.8695035 96.950495,31.5044681 Z" id="Fill-10" fill="#0571C1"></path>
                    <path d="M62.8905941,24.0382979 C62.574505,23.8791844 62.0987624,23.8791844 61.6240099,23.8791844 L58.4554455,23.8791844 L58.4554455,26.421773 L61.6240099,26.421773 C62.0987624,26.421773 62.574505,26.421773 62.8905941,26.2626596 C63.2076733,26.1035461 63.3663366,25.6264539 63.3663366,25.1503546 C63.525,24.5153901 63.2076733,24.1974113 62.8905941,24.0382979 Z" id="Fill-11" fill="#228FE0"></path>
                    <path d="M51.8022277,4.97421986 C51.4851485,4.81535461 51.0094059,4.81535461 50.5346535,4.81535461 L47.3660891,4.81535461 L47.3660891,7.35769504 L50.5346535,7.35769504 C51.0094059,7.35769504 51.4851485,7.35769504 51.8022277,7.19858156 C52.1185644,7.03971631 52.2769802,6.56361702 52.2769802,6.08652482 C52.4356436,5.45131206 52.1185644,5.13333333 51.8022277,4.97421986 Z" id="Fill-12" fill="#228FE0"></path>
                    <polygon id="Fill-13" fill="#228FE0" points="70.9700495 8.78698582 74.6141089 8.78698582 72.8707921 4.33925532"></polygon>
                    <polygon id="Fill-14" fill="#228FE0" points="44.040099 31.6635816 44.040099 22.6080142 39.9210396 27.0567376"></polygon>
                    <path d="M50.0589109,23.7203191 L46.7329208,23.7203191 L46.7329208,26.5796454 L50.2175743,26.5796454 C51.1680693,26.5796454 51.8022277,26.1035461 51.8022277,25.1503546 C51.6438119,24.1974113 51.0094059,23.7203191 50.0589109,23.7203191 Z" id="Fill-15" fill="#228FE0"></path>
                    <path d="M62.8905941,24.0382979 C62.574505,23.8791844 62.0987624,23.8791844 61.6240099,23.8791844 L58.4554455,23.8791844 L58.4554455,26.421773 L61.6240099,26.421773 C62.0987624,26.421773 62.574505,26.421773 62.8905941,26.2626596 C63.2076733,26.1035461 63.3663366,25.6264539 63.3663366,25.1503546 C63.525,24.5153901 63.2076733,24.1974113 62.8905941,24.0382979 Z" id="Fill-16" fill="#228FE0"></path>
                    <g id="Group-20">
                        <mask id="mask-10" fill="white">
                            <use xlink:href="#path-9"></use>
                        </mask>
                        <g id="Clip-18"></g>
                        <polygon id="Fill-17" fill="#2FABF7" mask="url(#mask-10)" points="48.9509901 32.299539 46.7329208 29.9163121 46.7329208 32.616773 41.5049505 32.616773 38.3363861 28.9631206 34.8517327 32.616773 24.3957921 32.616773 24.3957921 21.4969504 35.0101485 21.4969504 38.3363861 25.1503546 39.9210396 23.2442199 35.9606436 19.2725887 22.0200495 19.2725887 22.0200495 34.8411348 35.9606436 34.8411348 38.3363861 32.4586525 40.3957921 34.8411348 48.9509901 34.8411348"></polygon>
                        <polygon id="Fill-19" fill="#2FABF7" mask="url(#mask-10)" points="32.475 15.7770567 30.4155941 13.5536879 29.465099 13.5536879 29.465099 12.6004965 27.0893564 10.2170213 25.504703 13.5536879 23.2866337 13.5536879 19.484901 4.81535461 19.484901 13.5536879 14.0992574 13.5536879 12.990099 11.1702128 7.60371287 11.1702128 6.49455446 13.5536879 3.64331683 13.5536879 8.39653465 2.43287234 12.3569307 2.43287234 16.7920792 13.0765957 16.7920792 2.43287234 19.1685644 2.43287234 16.950495 0.208510638 14.5740099 0.208510638 14.5740099 2.11489362 13.7821782 0.208510638 6.81188119 0.208510638 3.64331683 7.67468085 0 15.7770567 8.23787129 15.7770567 9.18836634 13.3945745 11.4054455 13.3945745 12.514604 15.7770567 21.3856436 15.7770567 21.3856436 13.8706738 22.1787129 15.7770567 26.7722772 15.7770567 27.5641089 13.8706738 27.5641089 15.7770567"></polygon>
                    </g>
                    <polygon id="Fill-21" fill="#2FABF7" points="25.1886139 8.46975177 22.6534653 5.92741135 24.5542079 10.058156"></polygon>
                    <path d="M97.2675743,34.0468085 C98.6928218,33.093617 99.6433168,31.5044681 99.8017327,29.7571986 L97.5836634,27.5328369 C97.7423267,28.0099291 97.9009901,28.4870213 97.9009901,29.1219858 C97.9009901,30.0751773 97.5836634,30.8695035 96.950495,31.5044681 C96.3170792,32.1406738 95.2081683,32.616773 93.6232673,32.616773 L88.5549505,32.616773 L88.5549505,30.2342908 L93.6232673,30.2342908 C94.0990099,30.2342908 94.4160891,30.2342908 94.7324257,29.9163121 C94.8908416,29.7571986 95.049505,29.4402128 95.049505,29.1219858 C95.049505,28.8040071 94.8908416,28.4870213 94.7324257,28.3279078 C94.5737624,28.1690426 94.2576733,28.0099291 93.7819307,28.0099291 C91.2477723,27.8508156 88.2376238,28.0099291 88.2376238,24.5153901 C88.2376238,22.9262411 89.1881188,21.4969504 91.5648515,21.1787234 L89.8215347,19.4314539 C89.5054455,19.5895745 89.3467822,19.7486879 89.1881188,19.7486879 L89.1881188,18.7954965 L81.9007426,18.7954965 C80.7915842,18.7954965 79.3665842,19.1134752 78.7321782,19.7486879 L78.7321782,18.7954965 L65.7430693,18.7954965 L65.7430693,19.7486879 C64.7925743,18.9546099 63.0492574,18.7954965 62.2574257,18.7954965 L53.7032178,18.7954965 L53.7032178,19.7486879 C52.9113861,18.9546099 51.0094059,18.7954965 50.0589109,18.7954965 L40.5544554,18.7954965 L38.3363861,21.1787234 L36.2769802,18.7954965 L34.5346535,18.7954965 L39.2868812,23.5612057 L41.6633663,21.0198582 L50.0589109,21.0198582 C52.1185644,21.0198582 54.4950495,21.6548227 54.4950495,24.6735106 C54.4950495,27.8508156 52.2769802,28.4870213 49.9014851,28.4870213 L46.7329208,28.4870213 L46.7329208,30.8695035 L49.1084158,33.2527305 L49.1084158,30.8695035 L49.9014851,30.8695035 C51.0094059,30.8695035 52.4356436,30.8695035 53.5445545,30.3934043 L53.5445545,34.6820213 L60.6735149,34.6820213 L60.6735149,30.5512766 L60.989604,30.5512766 C61.4653465,30.5512766 61.4653465,30.5512766 61.4653465,31.0283688 L61.4653465,34.6820213 L83.0096535,34.6820213 C84.4358911,34.6820213 85.8611386,34.3650355 86.6529703,33.7288298 L86.6529703,34.6820213 L93.4658416,34.6820213 C94.7324257,34.8411348 96.1584158,34.6820213 97.2675743,34.0468085 Z M65.7430693,28.3279078 C66.0591584,28.8040071 66.2178218,29.4402128 66.2178218,30.3934043 L66.2178218,32.616773 L63.525,32.616773 L63.525,31.1874823 C63.525,30.5512766 63.525,29.4402128 63.0492574,28.9631206 C62.7329208,28.4870213 62.0987624,28.4870213 61.1482673,28.4870213 L58.2970297,28.4870213 L58.2970297,32.616773 L55.6042079,32.616773 L55.6042079,21.3378369 L61.6240099,21.3378369 C62.8905941,21.3378369 63.9997525,21.3378369 64.7925743,21.8139362 C65.5844059,22.2910284 66.2178218,23.0851064 66.2178218,24.3562766 C66.2178218,26.1035461 65.1086634,27.0567376 64.3168317,27.3747163 C65.1086634,27.6919504 65.5844059,28.0099291 65.7430693,28.3279078 Z M76.6737624,23.7203191 L70.495297,23.7203191 L70.495297,25.7855674 L76.515099,25.7855674 L76.515099,28.0099291 L70.495297,28.0099291 L70.495297,30.2342908 L76.6737624,30.2342908 L76.6737624,32.616773 L67.8024752,32.616773 L67.8024752,21.3378369 L76.6737624,21.3378369 L76.6737624,23.7203191 Z M83.3269802,32.616773 L78.2574257,32.616773 L78.2574257,30.2342908 L83.3269802,30.2342908 C83.8017327,30.2342908 84.1188119,30.2342908 84.4358911,29.9163121 C84.5945545,29.7571986 84.7519802,29.4402128 84.7519802,29.1219858 C84.7519802,28.8040071 84.5945545,28.4870213 84.4358911,28.3279078 C84.2772277,28.1690426 83.9601485,28.0099291 83.485396,28.0099291 C80.9502475,27.8508156 77.9403465,28.0099291 77.9403465,24.5153901 C77.9403465,22.9262411 78.8908416,21.1787234 81.7420792,21.1787234 L86.9700495,21.1787234 L86.9700495,23.8791844 L82.0594059,23.8791844 C81.5846535,23.8791844 81.2673267,23.8791844 80.9502475,24.0382979 C80.6341584,24.1974113 80.6341584,24.5153901 80.6341584,24.8323759 C80.6341584,25.3094681 80.9502475,25.4685816 81.2673267,25.6264539 C81.5846535,25.7855674 81.9007426,25.7855674 82.2178218,25.7855674 L83.6440594,25.7855674 C85.0693069,25.7855674 86.019802,26.1035461 86.6529703,26.7387589 C87.1287129,27.2158511 87.4457921,28.0099291 87.4457921,29.1219858 C87.4457921,31.5044681 86.019802,32.616773 83.3269802,32.616773 Z" id="Fill-22" fill="#228FE0"></path>
                    <path d="M90.9304455,24.8323759 C90.9304455,25.3094681 91.0891089,25.4685816 91.5648515,25.6264539 C91.8809406,25.7855674 92.1980198,25.7855674 92.5153465,25.7855674 L93.9405941,25.7855674 C94.8908416,25.7855674 95.5252475,25.9446809 96.1584158,26.2626596 L93.7819307,23.8791844 L92.3566832,23.8791844 C91.8809406,23.8791844 91.5648515,23.8791844 91.2477723,24.0382979 C91.0891089,24.1974113 90.9304455,24.5153901 90.9304455,24.8323759 Z" id="Fill-23" fill="#228FE0"></path>
                    <polygon id="Fill-25" fill="#228FE0" points="76.6737624 6.56361702 79.3665842 13.0765957 79.3665842 9.26382979"></polygon>
                    <path d="M49.5841584,11.8054255 L49.9014851,11.8054255 C50.2175743,11.8054255 50.2175743,11.8054255 50.2175743,12.2825177 L50.2175743,15.7770567 L61.6240099,15.7770567 L61.6240099,14.8238652 C62.574505,15.3009574 63.9997525,15.7770567 65.900495,15.7770567 L70.6537129,15.7770567 L71.6042079,13.235461 L73.8212871,13.235461 L74.7717822,15.7770567 L83.9601485,15.7770567 L83.9601485,14.1886525 L81.7420792,11.9642908 L81.7420792,13.7115603 L76.3564356,13.7115603 L75.564604,11.1702128 L70.0195545,11.1702128 L69.0690594,13.7115603 L66.0591584,13.7115603 C64.7925743,13.7115603 63.2076733,13.3945745 62.2574257,12.441383 C61.3069307,11.4881915 60.8321782,10.2170213 60.8321782,8.15177305 C60.8321782,6.56361702 61.1482673,4.97421986 62.2574257,3.70304965 C63.0492574,2.74985816 64.4752475,2.43287234 66.2178218,2.43287234 L68.7529703,2.43287234 L68.7529703,4.81535461 L66.2178218,4.81535461 C65.2673267,4.81535461 64.7925743,4.97421986 64.1581683,5.45131206 C63.6834158,5.92741135 63.3663366,6.88060284 63.3663366,7.99265957 C63.3663366,9.26382979 63.525,10.058156 64.1581683,10.6931206 C64.6339109,11.1702128 65.2673267,11.3293262 66.0591584,11.3293262 L67.1680693,11.3293262 L70.8113861,2.59198582 L72.3960396,2.59198582 L70.1782178,0.367624113 L66.0591584,0.367624113 C64.3168317,0.367624113 62.8905941,0.685602837 61.6240099,1.32056738 L61.6240099,0.367624113 L54.6537129,0.367624113 L54.6537129,1.32056738 C53.8618812,0.685602837 52.9113861,0.367624113 51.6438119,0.367624113 L26.1391089,0.367624113 L24.3957921,4.33925532 L22.6534653,0.367624113 L15.6829208,0.367624113 L17.9009901,2.59198582 L21.0695545,2.59198582 L23.7623762,8.46975177 L24.7128713,9.42294326 L27.5641089,2.43287234 L32.0002475,2.43287234 L32.0002475,13.7115603 L29.3064356,13.7115603 L29.3064356,4.97421986 L26.6138614,11.3293262 L31.2074257,15.935922 L49.4257426,15.935922 L49.5841584,11.8054255 Z M56.8717822,13.7115603 L59.564604,13.7115603 L59.564604,2.43287234 L56.8717822,2.43287234 L56.8717822,13.7115603 Z M42.9309406,4.81535461 L36.7524752,4.81535461 L36.7524752,6.88060284 L42.7725248,6.88060284 L42.7725248,9.10496454 L36.7524752,9.10496454 L36.7524752,11.3293262 L42.9309406,11.3293262 L42.9309406,13.7115603 L34.059901,13.7115603 L34.059901,2.43287234 L42.9309406,2.43287234 L42.9309406,4.81535461 Z M47.3660891,13.5536879 L44.6732673,13.5536879 L44.6732673,2.27375887 L50.6933168,2.27375887 C52.1185644,2.27375887 53.0688119,2.27375887 53.8618812,2.74985816 C54.6537129,3.22695035 55.1284653,4.02102837 55.1284653,5.29219858 C55.1284653,7.03971631 54.0193069,7.99265957 53.2274752,8.31088652 C53.8618812,8.46975177 54.3366337,8.94585106 54.4950495,9.26382979 C54.8121287,9.89904255 54.969802,10.3761348 54.969802,11.3293262 L54.969802,13.5536879 L52.2769802,13.5536879 L52.2769802,12.1234043 C52.2769802,11.4881915 52.2769802,10.5352482 51.8022277,9.89904255 C51.6438119,9.58205674 51.1680693,9.58205674 50.2175743,9.58205674 L47.3660891,9.58205674 L47.3660891,13.5536879 Z" id="Fill-26" fill="#228FE0"></path>
                </g>
            </g>
        </g>
    </g>
</svg>